{
  "accessors": [
    {
      "bufferView": 2,
      "componentType": 5126,
      "count": 676,
      "max": [
        0.29004955291748047,
        0.54432487487792969,
        -0.19533233344554901
      ],
      "min": [
        -0.28995990753173828,
        -0.58583259582519531,
        -0.27533233165740967
      ],
      "type": "VEC3"
    },
    {
      "bufferView": 2,
      "byteOffset": 8112,
      "componentType": 5126,
      "count": 676,
      "max": [
        1,
        1,
        1
      ],
      "min": [
        -1,
        -0.99931681156158447,
        -1
      ],
      "type": "VEC3"
    },
    {
      "bufferView": 1,
      "componentType": 5126,
      "count": 676,
      "max": [
        1,
        1
      ],
      "min": [
        0,
        0
      ],
      "type": "VEC2"
    },
    {
      "bufferView": 0,
      "componentType": 5125,
      "count": 1992,
      "max": [
        675
      ],
      "min": [
        0
      ],
      "type": "SCALAR"
    },
    {
      "bufferView": 2,
      "byteOffset": 16224,
      "componentType": 5126,
      "count": 28806,
      "max": [
        0.30104923248291016,
        0.73962974548339844,
        -9.9287844932405278e-06
      ],
      "min": [
        -0.30104923248291016,
        -0.78116607666015625,
        -0.47065475583076477
      ],
      "type": "VEC3"
    },
    {
      "bufferView": 2,
      "byteOffset": 361896,
      "componentType": 5126,
      "count": 28806,
      "max": [
        1,
        0.9998323917388916,
        0.99995815753936768
      ],
      "min": [
        -1,
        -0.99984610080718994,
        -0.99995815753936768
      ],
      "type": "VEC3"
    },
    {
      "bufferView": 1,
      "byteOffset": 5408,
      "componentType": 5126,
      "count": 28806,
      "max": [
        0.99853515625,
        0.92973607778549194
      ],
      "min": [
        0,
        0
      ],
      "type": "VEC2"
    },
    {
      "bufferView": 0,
      "byteOffset": 7968,
      "componentType": 5125,
      "count": 149124,
      "max": [
        28805
      ],
      "min": [
        0
      ],
      "type": "SCALAR"
    },
    {
      "bufferView": 2,
      "byteOffset": 707568,
      "componentType": 5126,
      "count": 11554,
      "max": [
        0.16689872741699219,
        0.53118324279785156,
        -0.41476136445999146
      ],
      "min": [
        -0.16715431213378906,
        0.097608566284179688,
        -0.77500361204147339
      ],
      "type": "VEC3"
    },
    {
      "bufferView": 2,
      "byteOffset": 846216,
      "componentType": 5126,
      "count": 11554,
      "max": [
        0.99993598461151123,
        1,
        0.99999570846557617
      ],
      "min": [
        -0.99989831447601318,
        -1,
        -0.99999988079071045
      ],
      "type": "VEC3"
    },
    {
      "bufferView": 1,
      "byteOffset": 235856,
      "componentType": 5126,
      "count": 11554,
      "max": [
        0.97656983137130737,
        0.99853515625
      ],
      "min": [
        0,
        0
      ],
      "type": "VEC2"
    },
    {
      "bufferView": 0,
      "byteOffset": 604464,
      "componentType": 5125,
      "count": 55716,
      "max": [
        11553
      ],
      "min": [
        0
      ],
      "type": "SCALAR"
    },
    {
      "bufferView": 2,
      "byteOffset": 984864,
      "componentType": 5126,
      "count": 6240,
      "max": [
        0.17499256134033203,
        0.78116607666015625,
        -0.13519634306430817
      ],
      "min": [
        -0.17500686645507812,
        -0.64205169677734375,
        -0.63749420642852783
      ],
      "type": "VEC3"
    },
    {
      "bufferView": 2,
      "byteOffset": 1059744,
      "componentType": 5126,
      "count": 6240,
      "max": [
        0.99999988079071045,
        0.99625146389007568,
        0.99999630451202393
      ],
      "min": [
        -1,
        -0.99999916553497314,
        -0.99995267391204834
      ],
      "type": "VEC3"
    },
    {
      "bufferView": 1,
      "byteOffset": 328288,
      "componentType": 5126,
      "count": 6240,
      "max": [
        0.73413282632827759,
        0.65718626976013184
      ],
      "min": [
        0.26582249999046326,
        0.36945852637290955
      ],
      "type": "VEC2"
    },
    {
      "bufferView": 1,
      "byteOffset": 378208,
      "componentType": 5126,
      "count": 6240,
      "max": [
        0.82985115051269531,
        0.77085655927658081
      ],
      "min": [
        0.055481791496276855,
        0.17166553437709808
      ],
      "type": "VEC2"
    },
    {
      "bufferView": 0,
      "byteOffset": 827328,
      "componentType": 5125,
      "count": 26880,
      "max": [
        6239
      ],
      "min": [
        0
      ],
      "type": "SCALAR"
    }
  ],
  "asset": {
    "extras": {
      "author": "Patrik.Hansson (https://sketchfab.com/Patrik.Hansson)",
      "license": "CC-BY-NC-4.0 (http://creativecommons.org/licenses/by-nc/4.0/)",
      "source": "https://sketchfab.com/3d-models/toy-car-9cf99655e7424770b79ba702fe83e5c1",
      "title": "Toy car"
    },
    "generator": "Sketchfab-9.66.0",
    "version": "2.0"
  },
  "bufferViews": [
    {
      "buffer": 0,
      "byteLength": 934848,
      "byteOffset": 0,
      "name": "floatBufferViews",
      "target": 34963
    },
    {
      "buffer": 0,
      "byteLength": 428128,
      "byteOffset": 934848,
      "byteStride": 8,
      "name": "floatBufferViews",
      "target": 34962
    },
    {
      "buffer": 0,
      "byteLength": 1134624,
      "byteOffset": 1362976,
      "byteStride": 12,
      "name": "floatBufferViews",
      "target": 34962
    }
  ],
  "buffers": [
    {
      "byteLength": 2497600,
      "uri": "scene.bin"
    }
  ],
  "images": [
    {
      "uri": "textures/Default_OBJ.003_baseColor.jpeg"
    }
  ],
  "materials": [
    {
      "doubleSided": true,
      "emissiveFactor": [
        0,
        0,
        0
      ],
      "name": "Default_OBJ",
      "pbrMetallicRoughness": {
        "baseColorFactor": [
          0.80000000000000004,
          0.80000000000000004,
          0.80000000000000004,
          1
        ],
        "metallicFactor": 0.97727299999999995,
        "roughnessFactor": 0.022727299999999999
      }
    },
    {
      "doubleSided": true,
      "emissiveFactor": [
        0,
        0,
        0
      ],
      "name": "Default_OBJ.001",
      "pbrMetallicRoughness": {
        "baseColorFactor": [
          0.0067601600000000003,
          0.0067601600000000003,
          0.0067601600000000003,
          1
        ],
        "metallicFactor": 0.054545499999999997,
        "roughnessFactor": 0.21818199999999999
      }
    },
    {
      "doubleSided": true,
      "emissiveFactor": [
        0,
        0,
        0
      ],
      "name": "Default_OBJ.002",
      "pbrMetallicRoughness": {
        "baseColorFactor": [
          0.91368499999999997,
          0.0043345300000000014,
          0.0047637400000000302,
          1
        ],
        "metallicFactor": 0,
        "roughnessFactor": 0.14999999999999999
      }
    },
    {
      "doubleSided": true,
      "emissiveFactor": [
        0,
        0,
        0
      ],
      "name": "Default_OBJ.003",
      "pbrMetallicRoughness": {
        "baseColorFactor": [
          1,
          1,
          1,
          1
        ],
        "baseColorTexture": {
          "index": 0,
          "texCoord": 0
        },
        "metallicFactor": 0,
        "roughnessFactor": 0.5
      }
    }
  ],
  "meshes": [
    {
      "primitives": [
        {
          "attributes": {
            "NORMAL": 1,
            "POSITION": 0,
            "TEXCOORD_0": 2
          },
          "indices": 3,
          "material": 0,
          "mode": 4
        }
      ]
    },
    {
      "primitives": [
        {
          "attributes": {
            "NORMAL": 5,
            "POSITION": 4,
            "TEXCOORD_0": 6
          },
          "indices": 7,
          "material": 1,
          "mode": 4
        }
      ]
    },
    {
      "primitives": [
        {
          "attributes": {
            "NORMAL": 9,
            "POSITION": 8,
            "TEXCOORD_0": 10
          },
          "indices": 11,
          "material": 2,
          "mode": 4
        }
      ]
    },
    {
      "primitives": [
        {
          "attributes": {
            "NORMAL": 13,
            "POSITION": 12,
            "TEXCOORD_0": 14,
            "TEXCOORD_1": 15
          },
          "indices": 16,
          "material": 3,
          "mode": 4
        }
      ]
    }
  ],
  "nodes": [
    {
      "children": [
        1
      ],
      "name": "RootNode (gltf orientation matrix)",
      "rotation": [
        -0.70710678118654746,
        -0,
        -0,
        0.70710678118654757
      ]
    },
    {
      "children": [
        2
      ],
      "matrix": [
        1,
        0,
        0,
        0,
        0,
        1,
        0,
        0,
        0,
        0,
        1,
        0,
        0,
        6.0853331262933352e-09,
        -2.5533331005078708e-09,
        1
      ],
      "name": "RootNode (model correction matrix)"
    },
    {
      "children": [
        3
      ],
      "name": "root"
    },
    {
      "children": [
        4,
        6,
        8,
        10
      ],
      "matrix": [
        1,
        0,
        0,
        0,
        0,
        2.2204460492503131e-16,
        1,
        0,
        0,
        -1,
        2.2204460492503131e-16,
        0,
        0,
        0,
        0,
        1
      ],
      "name": "GLTF_SceneRootNode"
    },
    {
      "children": [
        5
      ],
      "matrix": [
        1,
        0,
        0,
        0,
        0,
        -1.685873969314855e-07,
        0.99999999999998579,
        0,
        0,
        -0.99999999999998579,
        -1.685873969314855e-07,
        0,
        0,
        0,
        0,
        1
      ],
      "name": "hjulaxel_2"
    },
    {
      "mesh": 0,
      "name": ""
    },
    {
      "children": [
        7
      ],
      "matrix": [
        1,
        0,
        0,
        0,
        0,
        -1.685873969314855e-07,
        0.99999999999998579,
        0,
        0,
        -0.99999999999998579,
        -1.685873969314855e-07,
        0,
        0,
        0,
        0,
        1
      ],
      "name": "hjul_3"
    },
    {
      "mesh": 1,
      "name": ""
    },
    {
      "children": [
        9
      ],
      "matrix": [
        1,
        0,
        0,
        0,
        0,
        -1.685873969314855e-07,
        0.99999999999998579,
        0,
        0,
        -0.99999999999998579,
        -1.685873969314855e-07,
        0,
        0,
        0,
        0,
        1
      ],
      "name": "huvud_4"
    },
    {
      "mesh": 2,
      "name": ""
    },
    {
      "children": [
        11
      ],
      "matrix": [
        1,
        0,
        0,
        0,
        0,
        -1.685873969314855e-07,
        0.99999999999998579,
        0,
        0,
        -0.99999999999998579,
        -1.685873969314855e-07,
        0,
        0,
        0,
        0,
        1
      ],
      "name": "kropp_5"
    },
    {
      "mesh": 3,
      "name": ""
    }
  ],
  "samplers": [
    {
      "magFilter": 9729,
      "minFilter": 9987,
      "wrapS": 10497,
      "wrapT": 10497
    }
  ],
  "scene": 0,
  "scenes": [
    {
      "name": "OSG_Scene",
      "nodes": [
        0
      ]
    }
  ],
  "textures": [
    {
      "sampler": 0,
      "source": 0
    }
  ]
}

